<svg width="536" height="536" viewBox="0 0 536 536" fill="none" xmlns="http://www.w3.org/2000/svg"><path fill-rule="evenodd" clip-rule="evenodd" d="M502.139 295.633c-13.998 18.873-41.053 35.523-78.371 47.881l-11.581 3.835 2.405 9.947c8.627 35.685 10.008 68.581 4.01 92.076 45.352-37.699 76.339-92.086 83.537-153.739zM349.026 489.447c-21.007-5.613-44.96-20.15-70.743-43.272-9.163-8.218-10.66-9.198-12.214-8.002-.975.75-4.834 4.199-8.577 7.665-22.194 20.55-49.829 37.66-69.854 43.248-.315.088-.63.174-.943.258 25.344 9.313 52.731 14.397 81.306 14.397 28.469 0 55.759-5.047 81.025-14.294zm-232.897-41.138c-.226-.821-.447-1.658-.662-2.511-2.061-8.177-2.353-11.953-2.332-30.204.025-22.105 1.538-34.195 7.195-57.496 1.374-5.664 2.179-10.592 1.788-10.951-.39-.358-5.403-2.186-11.14-4.06-36.15-11.811-62.919-28.534-77.128-47.563 7.107 61.12 37.592 115.107 82.279 152.785zm384.602-218.081c-5.408-6.94-12.397-13.554-20.705-19.478-11.541-8.23-34.551-19.574-50.936-25.113-6.884-2.326-13.047-4.42-13.696-4.652-.837-.3-.61-2.786.785-8.585 1.079-4.49 2.951-14.922 4.158-23.183 2.913-19.924 2.446-48.192-1.009-61.118-.101-.376-.204-.75-.308-1.123 42.627 35.6 72.487 85.974 81.711 143.252zM348.65 46.416c-25.161-9.16-52.322-14.157-80.649-14.157-28.805 0-56.403 5.166-81.918 14.623 9.588 2.637 19.952 6.868 29.124 12.08 11.432 6.495 31.914 21.81 42.996 32.152 4.679 4.364 8.838 7.937 9.241 7.937.404 0 4.507-3.55 9.118-7.887C298.826 70.22 323.8 54.29 345.129 47.426c1.127-.362 2.305-.7 3.521-1.01zM116.628 87.272c-42.37 35.525-72.063 85.674-81.313 142.679 5.319-6.779 12.21-13.25 20.555-19.197 11.992-8.547 33.899-19.326 50.936-25.064 7.458-2.512 13.708-4.682 13.891-4.823.181-.142-.849-6.054-2.292-13.137-4.26-20.924-5.189-29.621-5.158-48.341.023-14.245.466-19.678 2.256-27.64a91.107 91.107 0 011.125-4.477zm127.595 20.082c-21.438-20.024-45.978-35.486-63.515-40.021-3.525-.912-9.69-1.657-13.7-1.657-16.753 0-27.44 11.838-31.478 34.87-1.525 8.702-1.313 30.393.425 43.353 1.296 9.674 5.312 30.154 6.042 30.82.149.136 6.607-1.056 14.351-2.649 13.238-2.721 36.489-6.32 50.597-7.83 5.663-.607 6.495-1.016 8.602-4.232 2.683-4.09 24.967-31.743 32.021-39.732l4.74-5.369-8.085-7.553zm154.654-10.667c-3.232-15.248-11.703-27.29-21.017-29.876-6.735-1.87-17.892-1.29-25.951 1.348-19.118 6.26-40.18 20.101-63.898 41.991l-5.489 5.067 6.933 7.822c8.149 9.194 26.77 32.271 29.933 37.096 2.155 3.288 2.449 3.386 13.711 4.612 14.098 1.533 39.182 5.574 51.126 8.235l8.863 1.975.976-3.796c6.046-23.524 8.281-58.106 4.813-74.474zm-115.93 51.806c-5.668-6.692-11.166-13.279-12.217-14.638-1.053-1.36-2.251-2.472-2.664-2.472-1.165 0-6.403 5.729-16.689 18.252l-9.422 11.473 25.146.279c13.83.155 25.372.053 25.649-.223.277-.277-4.134-5.978-9.803-12.671zm37.671 51.103c-8.582-13.105-10.012-14.781-13.143-15.407-9.035-1.808-81.075-1.392-82.664.476-.201.237-3.648 5.359-7.66 11.382-11.307 16.975-22.351 35.733-32.137 54.578l-8.945 17.228 6.444 12.856c12.466 24.873 33.885 60.506 37.209 61.903 2.692 1.132 73.088 1.807 85.752.822l10.93-.849 7.614-11.994c9.185-14.47 19.561-32.564 28.542-49.765l6.65-12.74-6.988-13.856c-9.305-18.449-19.888-36.744-31.604-54.634zm65.565-3.547c-.494-.471-7-2.067-14.457-3.547-7.458-1.48-17.923-3.326-23.256-4.104-5.16-.752-7.955-1.383-8.609-.474-.794 1.104 1.569 4.479 6.689 12.667 6.405 10.243 11.794 19.552 19.907 34.386 2.142 3.916 4.066 6.947 4.276 6.737.728-.728 9.58-24.333 12.958-34.546 1.875-5.676 2.99-10.645 2.492-11.119zm-197.333 3.822c3.923-6.215 7.132-11.495 7.132-11.734 0-.499-5.555-.344-9.387.264-10.472 1.661-36.401 6.938-37.535 7.639-1.112.687-.414 3.692 3.431 14.776 2.656 7.652 6.425 17.858 8.376 22.678l3.549 8.767 2.588-4.595a3130.58 3130.58 0 008.652-15.544c3.334-6.023 9.271-16.036 13.194-22.251zm-42.317 54.619c-6.271-14.531-15.121-38.021-17.795-47.231-.958-3.298-1.825-5.973-1.928-5.945-.103.03-5.889 2.089-12.859 4.578-33.746 12.051-58.383 28.46-66.688 44.419-4.213 8.096-4.251 17.834-.104 26.28 7.997 16.285 35.267 34.295 69.034 45.594 11.379 3.807 12.583 4.024 13.253 2.385.406-.991 3.159-8.372 6.116-16.403 2.959-8.031 7.907-20.452 10.997-27.602l5.615-13.002-5.641-13.073zm342.1-4.179c-6.164-11.844-23.124-25.295-44.765-35.503-12.016-5.668-34.819-13.834-35.502-12.713-.245.402-1.01 2.844-1.699 5.425-1.88 7.034-12.632 35.426-18.485 48.812l-5.155 11.788 7 16.373c3.85 9.006 8.995 22.116 11.433 29.135 2.445 7.039 3.199 10.516 5.222 11.578 2.216 1.163 5.955-.572 15.107-3.699 13.701-4.681 33.684-14.333 43.775-21.142 10.531-7.106 19.513-16.321 23.173-23.774 4.147-8.446 4.109-18.184-.104-26.28zm-273.877 17.702c0-23.779 16.612-45.321 39.75-51.543 32.989-8.872 66.635 17.154 66.635 51.543 0 29.064-24.128 53.191-53.193 53.191-29.065 0-53.192-24.127-53.192-53.191zm-25.868 70.922c1.535 0 1.106-1.218-2.477-7.04-2.382-3.872-8.229-14.057-12.991-22.635l-8.659-15.593-1.744 4.121c-3.151 7.444-11.735 30.458-12.074 32.368-.247 1.393.599 2.078 3.319 2.685 6.911 1.542 32.773 6.094 34.626 6.094zm195.721-6.846c.565-.492-2.684-10.064-8.388-24.704-2.85-7.313-5.342-13.298-5.54-13.298-.197 0-2.942 4.811-6.1 10.691-3.158 5.879-8.824 15.816-12.591 22.081-3.767 6.266-6.626 11.616-6.352 11.889.717.718 37.771-5.614 38.971-6.659zM200.48 362.403c-9.81-1.111-32.403-4.727-43.089-6.897-5.449-1.107-10.684-2.255-11.633-2.551-1.431-.447-2.182 1.382-4.401 10.712-13.196 55.492-6.983 97.292 15.607 104.989 19.996 6.813 52.615-8.505 88.959-41.776l6.658-6.094-9.143-10.419c-9.557-10.889-23.672-28.713-32.006-40.414-4.874-6.843-4.907-6.865-10.952-7.55zm183.646 103.742c18.383-11.659 22.207-51.745 9.845-103.222-1.171-4.876-2.431-9.139-2.8-9.474-.369-.335-3.253.005-6.408.757-7.217 1.719-41.171 7.345-49.638 8.224l-6.354.66-5.64 7.954c-7.954 11.216-20.56 27.1-31.357 39.51l-9.226 10.605 8.084 7.454c17.797 16.411 40.365 31.634 55.655 37.541 16.187 6.254 27.968 6.25 37.839-.009zm-111.042-67.351c5.343-5.846 18.511-21.887 24.307-29.613l2.739-3.65H234.723l2.738 3.65c6.105 8.133 19.524 24.439 24.615 29.909l5.418 5.82 5.59-6.116z" fill="#1E1E1E"/><circle cx="268" cy="268" r="258" stroke="#2221A1" stroke-width="20"/></svg>